<svg xmlns="http://www.w3.org/2000/svg" width="760" height="460" viewBox="0 0 760 460">
<rect width="100%" height="100%" fill="white"/>
<line x1="60" y1="400" x2="700" y2="400" stroke="black"/>
<line x1="60" y1="60" x2="60" y2="400" stroke="black"/>
<text x="380.0" y="30" text-anchor="middle" font-family="Arial" font-size="18">harmful_skill_invocation_rate vs skill debt pollution</text>
<text x="380.0" y="445" text-anchor="middle" font-family="Arial" font-size="13">pollution rate</text>
<text x="18" y="230.0" transform="rotate(-90 18,230.0)" text-anchor="middle" font-family="Arial" font-size="13">harmful_skill_invocation_rate</text>
<polyline points="60.0,400.0 145.3,397.3 273.3,394.7 486.7,392.5 700.0,392.3" fill="none" stroke="#1f77b4" stroke-width="2"/>
<circle cx="60.0" cy="400.0" r="3" fill="#1f77b4"/>
<circle cx="145.3" cy="397.3" r="3" fill="#1f77b4"/>
<circle cx="273.3" cy="394.7" r="3" fill="#1f77b4"/>
<circle cx="486.7" cy="392.5" r="3" fill="#1f77b4"/>
<circle cx="700.0" cy="392.3" r="3" fill="#1f77b4"/>
<rect x="708" y="50" width="10" height="10" fill="#1f77b4"/>
<text x="724" y="60" font-family="Arial" font-size="11">health_score</text>
<polyline points="60.0,400.0 145.3,298.9 273.3,168.9 486.7,111.1 700.0,96.7" fill="none" stroke="#ff7f0e" stroke-width="2"/>
<circle cx="60.0" cy="400.0" r="3" fill="#ff7f0e"/>
<circle cx="145.3" cy="298.9" r="3" fill="#ff7f0e"/>
<circle cx="273.3" cy="168.9" r="3" fill="#ff7f0e"/>
<circle cx="486.7" cy="111.1" r="3" fill="#ff7f0e"/>
<circle cx="700.0" cy="96.7" r="3" fill="#ff7f0e"/>
<rect x="708" y="68" width="10" height="10" fill="#ff7f0e"/>
<text x="724" y="78" font-family="Arial" font-size="11">lfu</text>
<polyline points="60.0,400.0 145.3,304.7 273.3,192.0 486.7,148.7 700.0,134.2" fill="none" stroke="#2ca02c" stroke-width="2"/>
<circle cx="60.0" cy="400.0" r="3" fill="#2ca02c"/>
<circle cx="145.3" cy="304.7" r="3" fill="#2ca02c"/>
<circle cx="273.3" cy="192.0" r="3" fill="#2ca02c"/>
<circle cx="486.7" cy="148.7" r="3" fill="#2ca02c"/>
<circle cx="700.0" cy="134.2" r="3" fill="#2ca02c"/>
<rect x="708" y="86" width="10" height="10" fill="#2ca02c"/>
<text x="724" y="96" font-family="Arial" font-size="11">lru</text>
<polyline points="60.0,400.0 145.3,400.0 273.3,400.0 486.7,400.0 700.0,400.0" fill="none" stroke="#d62728" stroke-width="2"/>
<circle cx="60.0" cy="400.0" r="3" fill="#d62728"/>
<circle cx="145.3" cy="400.0" r="3" fill="#d62728"/>
<circle cx="273.3" cy="400.0" r="3" fill="#d62728"/>
<circle cx="486.7" cy="400.0" r="3" fill="#d62728"/>
<circle cx="700.0" cy="400.0" r="3" fill="#d62728"/>
<rect x="708" y="104" width="10" height="10" fill="#d62728"/>
<text x="724" y="114" font-family="Arial" font-size="11">no_skill</text>
<polyline points="60.0,400.0 145.3,400.0 273.3,400.0 486.7,400.0 700.0,400.0" fill="none" stroke="#9467bd" stroke-width="2"/>
<circle cx="60.0" cy="400.0" r="3" fill="#9467bd"/>
<circle cx="145.3" cy="400.0" r="3" fill="#9467bd"/>
<circle cx="273.3" cy="400.0" r="3" fill="#9467bd"/>
<circle cx="486.7" cy="400.0" r="3" fill="#9467bd"/>
<circle cx="700.0" cy="400.0" r="3" fill="#9467bd"/>
<rect x="708" y="122" width="10" height="10" fill="#9467bd"/>
<text x="724" y="132" font-family="Arial" font-size="11">oracle</text>
<polyline points="60.0,400.0 145.3,400.0 273.3,203.6 486.7,105.4 700.0,137.1" fill="none" stroke="#8c564b" stroke-width="2"/>
<circle cx="60.0" cy="400.0" r="3" fill="#8c564b"/>
<circle cx="145.3" cy="400.0" r="3" fill="#8c564b"/>
<circle cx="273.3" cy="203.6" r="3" fill="#8c564b"/>
<circle cx="486.7" cy="105.4" r="3" fill="#8c564b"/>
<circle cx="700.0" cy="137.1" r="3" fill="#8c564b"/>
<rect x="708" y="140" width="10" height="10" fill="#8c564b"/>
<text x="724" y="150" font-family="Arial" font-size="11">recency</text>
<polyline points="60.0,400.0 145.3,387.4 273.3,350.2 486.7,319.5 700.0,294.6" fill="none" stroke="#e377c2" stroke-width="2"/>
<circle cx="60.0" cy="400.0" r="3" fill="#e377c2"/>
<circle cx="145.3" cy="387.4" r="3" fill="#e377c2"/>
<circle cx="273.3" cy="350.2" r="3" fill="#e377c2"/>
<circle cx="486.7" cy="319.5" r="3" fill="#e377c2"/>
<circle cx="700.0" cy="294.6" r="3" fill="#e377c2"/>
<rect x="708" y="158" width="10" height="10" fill="#e377c2"/>
<text x="724" y="168" font-family="Arial" font-size="11">skill_decay</text>
<polyline points="60.0,400.0 145.3,301.8 273.3,168.9 486.7,116.9 700.0,90.9" fill="none" stroke="#17becf" stroke-width="2"/>
<circle cx="60.0" cy="400.0" r="3" fill="#17becf"/>
<circle cx="145.3" cy="301.8" r="3" fill="#17becf"/>
<circle cx="273.3" cy="168.9" r="3" fill="#17becf"/>
<circle cx="486.7" cy="116.9" r="3" fill="#17becf"/>
<circle cx="700.0" cy="90.9" r="3" fill="#17becf"/>
<rect x="708" y="176" width="10" height="10" fill="#17becf"/>
<text x="724" y="186" font-family="Arial" font-size="11">static</text>
<polyline points="60.0,400.0 145.3,395.8 273.3,388.0 486.7,387.6 700.0,387.6" fill="none" stroke="#7f7f7f" stroke-width="2"/>
<circle cx="60.0" cy="400.0" r="3" fill="#7f7f7f"/>
<circle cx="145.3" cy="395.8" r="3" fill="#7f7f7f"/>
<circle cx="273.3" cy="388.0" r="3" fill="#7f7f7f"/>
<circle cx="486.7" cy="387.6" r="3" fill="#7f7f7f"/>
<circle cx="700.0" cy="387.6" r="3" fill="#7f7f7f"/>
<rect x="708" y="194" width="10" height="10" fill="#7f7f7f"/>
<text x="724" y="204" font-family="Arial" font-size="11">validation_gated</text>
<text x="60.0" y="418" text-anchor="middle" font-family="Arial" font-size="11">0</text>
<text x="145.3" y="418" text-anchor="middle" font-family="Arial" font-size="11">0.1</text>
<text x="273.3" y="418" text-anchor="middle" font-family="Arial" font-size="11">0.25</text>
<text x="486.7" y="418" text-anchor="middle" font-family="Arial" font-size="11">0.5</text>
<text x="700.0" y="418" text-anchor="middle" font-family="Arial" font-size="11">0.75</text>
<line x1="56" y1="400.0" x2="60" y2="400.0" stroke="black"/>
<text x="52" y="404.0" text-anchor="end" font-family="Arial" font-size="11">0.00</text>
<line x1="56" y1="315.0" x2="60" y2="315.0" stroke="black"/>
<text x="52" y="319.0" text-anchor="end" font-family="Arial" font-size="11">0.16</text>
<line x1="56" y1="230.0" x2="60" y2="230.0" stroke="black"/>
<text x="52" y="234.0" text-anchor="end" font-family="Arial" font-size="11">0.33</text>
<line x1="56" y1="145.0" x2="60" y2="145.0" stroke="black"/>
<text x="52" y="149.0" text-anchor="end" font-family="Arial" font-size="11">0.49</text>
<line x1="56" y1="60.0" x2="60" y2="60.0" stroke="black"/>
<text x="52" y="64.0" text-anchor="end" font-family="Arial" font-size="11">0.65</text>
</svg>